<?xml version="1.0" standalone="no"?>
<!DOCTYPE svg PUBLIC "-//W3C//DTD SVG 1.1//EN" "http://www.w3.org/Graphics/SVG/1.1/DTD/svg11.dtd" >
<svg xmlns="http://www.w3.org/2000/svg">
<metadata></metadata>
<defs>
<font id="tradegothicregular" horiz-adv-x="909" >
<font-face units-per-em="2048" ascent="1638" descent="-410" />
<missing-glyph horiz-adv-x="454" />
<glyph horiz-adv-x="2048" />
<glyph horiz-adv-x="2048" />
<glyph unicode="&#xd;" horiz-adv-x="681" />
<glyph unicode=" "  horiz-adv-x="454" />
<glyph unicode="&#x09;" horiz-adv-x="454" />
<glyph unicode="&#xa0;" horiz-adv-x="454" />
<glyph unicode="!" horiz-adv-x="681" d="M254 0v193h172v-193h-172zM254 1479h172l-33 -1041h-106z" />
<glyph unicode="&#x22;" horiz-adv-x="681" d="M147 954v525h127v-525h-127zM408 954v525h127v-525h-127z" />
<glyph unicode="#" d="M37 465v115h184l37 319h-170v115h180l54 465h118l-51 -465h203l51 465h121l-53 -465h161v-115h-172l-36 -319h159v-115h-172l-51 -465h-121l51 465h-202l-52 -465h-120l53 465h-172zM340 580h205l35 319h-203z" />
<glyph unicode="$" d="M78 406h147q6 -238 168 -283v602q-72 47 -112.5 80t-92 85t-75 111.5t-23.5 131.5q0 139 84 234t219 112v196h103v-196q147 -20 227 -127t84 -267h-148q-6 94 -46 170t-117 101v-522q82 -55 122.5 -87t100 -92.5t86 -131t26.5 -156.5q0 -156 -92 -254.5t-243 -112.5v-238 h-103v238q-152 23 -233.5 132.5t-81.5 273.5zM238 1149q-1 -127 155 -244v451q-70 -14 -112.5 -71.5t-42.5 -135.5zM496 123q86 8 137 72.5t51 164.5q0 88 -49 156.5t-139 138.5v-532z" />
<glyph unicode="%" horiz-adv-x="1593" d="M94 1159q0 131 92.5 225.5t227.5 94.5t227 -94.5t92 -225.5t-92 -225t-227 -94t-227.5 94t-92.5 225zM217 1159q0 -80 56.5 -138t140.5 -58t140 58t56 138t-56 138.5t-140 58.5t-140.5 -58.5t-56.5 -138.5zM287 -20l848 1519h118l-847 -1519h-119zM786 319.5 q0 131.5 92.5 225.5t227.5 94t227 -94t92 -225.5t-92 -225.5t-227 -94t-227.5 94t-92.5 225.5zM909 319.5q0 -79.5 56.5 -138t140.5 -58.5t140.5 58.5t56.5 138t-56.5 138t-140.5 58.5t-140.5 -58.5t-56.5 -138z" />
<glyph unicode="&#x26;" horiz-adv-x="1138" d="M102 356q0 51 13.5 102.5t28 86.5t48 81t49 65.5t57.5 63.5t48 52q-104 219 -104 379q0 152 72.5 232.5t185.5 80.5q121 0 197.5 -75.5t76.5 -182.5q0 -96 -43 -184t-85 -133t-132 -131q113 -231 264 -408q48 121 66 332l143 -8q-18 -250 -102 -439q70 -82 180 -159 l-86 -111q-96 45 -184 139q-131 -160 -314 -159q-174 0 -276.5 101t-102.5 275zM250 369q0 -117 64.5 -185.5t183.5 -68.5q59 0 114.5 34.5t92.5 88.5q-168 199 -299 448q-63 -66 -109.5 -151.5t-46.5 -165.5zM389 1198q0 -23 2 -45.5t7 -47t8.5 -38.5t13.5 -42t12 -35 t15.5 -39.5t13.5 -35.5q84 94 125 170t41 168q0 53 -33 94.5t-74 41.5q-131 -1 -131 -191z" />
<glyph unicode="'" horiz-adv-x="454" d="M164 954v525h127v-525h-127z" />
<glyph unicode="(" horiz-adv-x="569" d="M135 637q0 248 60.5 450.5t193.5 411.5l98 -61q-217 -391 -217 -801t217 -801l-98 -61q-133 209 -193.5 411.5t-60.5 450.5z" />
<glyph unicode=")" horiz-adv-x="569" d="M82 -164q217 391 217 801t-217 801l98 61q133 -209 193.5 -411.5t60.5 -450.5t-60.5 -450.5t-193.5 -411.5z" />
<glyph unicode="*" d="M92 1163l41 135l295 -143l-41 324h135l-41 -324l295 143l41 -135l-315 -65l233 -230l-119 -90l-161 283l-162 -283l-119 90l234 230z" />
<glyph unicode="+" horiz-adv-x="1228" d="M82 465v135h465v465h135v-465h465v-135h-465v-465h-135v465h-465z" />
<glyph unicode="," horiz-adv-x="454" d="M129 -307l94 307h-82v193h172v-205l-123 -295h-61z" />
<glyph unicode="-" horiz-adv-x="681" d="M88 465v135h504v-135h-504z" />
<glyph unicode="." horiz-adv-x="454" d="M141 0v193h172v-193h-172z" />
<glyph unicode="/" horiz-adv-x="569" d="M-20 -20l475 1519h135l-475 -1519h-135z" />
<glyph unicode="0" d="M98 739.5q0 397.5 87 578.5t269.5 181t269.5 -181t87 -578.5t-87 -578.5t-269.5 -181t-269.5 181t-87 578.5zM246 739.5q0 -350.5 51 -494t157.5 -143.5t158 143.5t51.5 494t-51.5 493.5t-158 143t-157.5 -143t-51 -493.5z" />
<glyph unicode="1" d="M213 1294v90q137 33 233 115h99v-1376h172v-123h-500v123h180v1188z" />
<glyph unicode="2" d="M98 0v123q35 119 105.5 239.5t142.5 214t139.5 185.5t110.5 189.5t43 191.5q0 113 -50 173t-128 60q-92 0 -149.5 -75.5t-65.5 -235.5h-135q20 434 346 434q150 0 239.5 -98t89.5 -279q0 -127 -57 -241.5t-134 -200.5t-183.5 -237.5t-178.5 -319.5h562v-123h-697z" />
<glyph unicode="3" d="M86 352h135q18 -250 213 -250q80 0 138.5 83t58.5 227q0 178 -78 245.5t-258 67.5v123q172 0 241.5 58.5t69.5 223.5q0 246 -172 246q-88 0 -130 -60.5t-46 -148.5l-135 17q12 139 89 227t212 88t232.5 -93t97.5 -267q0 -150 -54.5 -241t-138.5 -107v-5q217 -72 217 -368 q0 -215 -104.5 -326.5t-255.5 -111.5q-145 0 -237.5 105t-94.5 267z" />
<glyph unicode="4" d="M49 336v70l406 1073h215v-1020h153v-123h-153v-336h-148v336h-473zM188 459h334v884h-4z" />
<glyph unicode="5" d="M115 332l135 12q29 -242 188 -242q98 0 159.5 100.5t61.5 286.5q0 362 -202 363q-61 0 -114.5 -41t-72.5 -102l-114 20l49 750h520l-12 -123h-389l-29 -451q82 70 197 70q137 0 226 -125t89 -356q0 -244 -102.5 -379t-258.5 -135q-152 0 -236.5 99t-94.5 253z" />
<glyph unicode="6" d="M106 659q0 840 373 840q135 0 201.5 -74t89.5 -213l-135 -8q-25 172 -160 172q-211 0 -217 -592q104 113 227 113q137 0 227.5 -109.5t90.5 -345.5q0 -215 -86 -338.5t-232 -123.5q-201 0 -290 147t-89 532zM254 508q0 -217 53 -311.5t156 -94.5q193 0 192 342 q0 330 -184 330q-123 0 -217 -127v-139z" />
<glyph unicode="7" d="M123 1356v123h663v-78l-430 -1401h-155l430 1356h-508z" />
<glyph unicode="8" d="M90 373q0 246 238 413q-104 84 -154.5 170t-50.5 211q0 143 96 237.5t235.5 94.5t235.5 -94t96 -238q0 -125 -50 -211t-154 -170q237 -167 237 -413q0 -166 -99 -279.5t-265 -113.5t-265.5 113.5t-99.5 279.5zM238 367q0 -102 56 -183.5t160.5 -81.5t161 81.5t56.5 183.5 q0 109 -56.5 186.5t-160.5 155.5q-104 -78 -160.5 -156t-56.5 -186zM270 1184q0 -215 185 -328q184 113 184 328q0 78 -47 135t-137 57t-137.5 -57t-47.5 -135z" />
<glyph unicode="9" d="M106 1036q0 215 86.5 339t231.5 124q201 0 290 -147.5t89 -532.5q0 -840 -373 -839q-135 0 -201.5 73.5t-89.5 212.5l135 8q25 -172 160 -172q211 0 217 592q-104 -113 -227 -112q-137 0 -227.5 109.5t-90.5 344.5zM254 1034q0 -330 184 -329q123 -1 217 126v140 q0 217 -53 311t-156 94q-193 0 -192 -342z" />
<glyph unicode=":" horiz-adv-x="454" d="M141 0v193h172v-193h-172zM141 557v193h172v-193h-172z" />
<glyph unicode=";" horiz-adv-x="454" d="M129 -307l94 307h-82v193h172v-205l-123 -295h-61zM141 557v193h172v-193h-172z" />
<glyph unicode="&#x3c;" horiz-adv-x="1228" d="M82 481v103l1065 475v-141l-864 -386l864 -385v-141z" />
<glyph unicode="=" horiz-adv-x="1228" d="M82 246v135h1065v-135h-1065zM82 684v135h1065v-135h-1065z" />
<glyph unicode="&#x3e;" horiz-adv-x="1228" d="M82 6v141l864 385l-864 386v141l1065 -475v-103z" />
<glyph unicode="?" horiz-adv-x="796" d="M131 1225q10 121 83 197.5t192 76.5q111 0 185.5 -71.5t74.5 -202.5q0 -94 -29 -175t-71 -137.5t-84 -112t-70.5 -127t-28.5 -153.5v-82h-115v103q0 106 39 200.5t86 152.5t86 146t39 185q0 74 -36 112.5t-83 38.5q-61 0 -100 -54t-45 -122zM227 0v193h172v-193h-172z " />
<glyph unicode="@" horiz-adv-x="1638" d="M94 743q0 313 222.5 534.5t535.5 221.5q287 0 489.5 -178t202.5 -449q0 -246 -158.5 -417.5t-318.5 -171.5q-55 0 -91 34.5t-42 100.5l-4 -2q-121 -133 -250 -133t-211 93t-82 226q0 221 136 397.5t343 176.5q162 0 230 -160l45 127h129l-176 -578q-20 -66 -21 -110 q0 -51 45 -52q109 0 206 147.5t97 311.5q0 233 -167 377.5t-400 144.5q-266 0 -445.5 -188t-179.5 -453q0 -276 184.5 -462.5t450.5 -186.5q145 0 282.5 65.5t221.5 178.5h129q-98 -166 -269 -262t-368 -96q-324 0 -545 222t-221 541zM543 616q0 -88 48 -143t124 -55 q125 0 221 148.5t96 285.5q0 74 -51 133t-115 59q-133 0 -228 -141t-95 -287z" />
<glyph unicode="A" d="M18 0l326 1479h221l326 -1479h-160l-88 438h-377l-88 -438h-160zM289 573h332l-164 795h-4z" />
<glyph unicode="B" horiz-adv-x="1024" d="M135 0v1479h393q164 0 256.5 -99.5t92.5 -265.5q0 -119 -55.5 -207t-170.5 -121v-4q129 -35 193.5 -132t64.5 -240q0 -207 -116.5 -308.5t-358.5 -101.5h-299zM295 135h160q295 0 295 275q0 150 -71 224.5t-224 74.5h-160v-574zM295 844h90q176 0 254 61.5t78 208.5 q0 125 -60.5 177t-201.5 52h-160v-499z" />
<glyph unicode="C" horiz-adv-x="1024" d="M94 739.5q0 403.5 109.5 581.5t318.5 178q342 0 379 -467h-160q-29 332 -219 332q-141 0 -204.5 -142.5t-63.5 -482.5t63.5 -482t204.5 -142q117 0 177.5 89t62.5 288h160q-4 -246 -107.5 -379t-292.5 -133q-209 0 -318.5 178t-109.5 581.5z" />
<glyph unicode="D" horiz-adv-x="1024" d="M135 0v1479h275q121 0 210 -37t155.5 -120t100 -228.5t33.5 -354.5t-33.5 -354t-100 -228t-156 -120t-209.5 -37h-275zM295 135h86q94 0 157.5 23.5t113.5 88t74 185.5t24 307.5t-24 307t-74 185t-113.5 88t-157.5 23.5h-86v-1208z" />
<glyph unicode="E" d="M135 0v1479h676v-136h-516v-503h381v-135h-381v-570h541v-135h-701z" />
<glyph unicode="F" horiz-adv-x="796" d="M135 0v1479h635v-136h-475v-503h356v-135h-356v-705h-160z" />
<glyph unicode="G" horiz-adv-x="1024" d="M94 739.5q0 403.5 109.5 581.5t314.5 178q98 0 172 -40t119 -109.5t68.5 -149.5t31.5 -176h-159q-23 340 -232 340q-137 0 -200.5 -142.5t-63.5 -482.5t63.5 -482t200.5 -142q113 0 172.5 60.5t59.5 172.5v209h-201v135h360v-692h-102l-21 111q-98 -131 -268 -131 q-205 0 -314.5 178t-109.5 581.5z" />
<glyph unicode="H" horiz-adv-x="1024" d="M135 0v1479h160v-639h434v639h160v-1479h-160v705h-434v-705h-160z" />
<glyph unicode="I" horiz-adv-x="454" d="M147 0v1479h160v-1479h-160z" />
<glyph unicode="J" horiz-adv-x="569" d="M-12 -8l12 139q45 -16 92 -16q98 0 140 49t42 168v1147h160v-1110q0 -223 -82 -306t-282 -83q-20 0 -82 12z" />
<glyph unicode="K" d="M115 0v1479h159v-754h5l413 754h172l-286 -516l340 -963h-173l-274 799h-4l-193 -344v-455h-159z" />
<glyph unicode="L" horiz-adv-x="796" d="M135 0v1479h160v-1344h479v-135h-639z" />
<glyph unicode="M" horiz-adv-x="1251" d="M115 0v1479h254l258 -1119h4l252 1119h254v-1479h-148v1356h-4l-307 -1356h-105l-307 1356h-4v-1356h-147z" />
<glyph unicode="N" horiz-adv-x="1024" d="M115 0v1479h250l380 -1090h5v1090h159v-1479h-172l-458 1286h-5v-1286h-159z" />
<glyph unicode="O" horiz-adv-x="1024" d="M94 739.5q0 759.5 418 759.5t418 -759.5t-418 -759.5t-418 759.5zM254 739.5q0 -239.5 36 -383t90 -192.5t132 -49t132 49t90 192.5t36 383t-36 383t-90 192.5t-132 49t-132 -49t-90 -192.5t-36 -383z" />
<glyph unicode="P" d="M115 0v1479h348q178 0 285.5 -111t107.5 -295t-107.5 -294.5t-285.5 -110.5h-189v-668h-159zM274 803h168q254 0 254 270t-254 270h-168v-540z" />
<glyph unicode="Q" horiz-adv-x="1024" d="M94 739.5q0 759.5 418 759.5t418 -760q0 -397 -115 -585q76 -123 156 -129v-140q-145 8 -242 168q-87 -73 -214 -73h-3q-418 0 -418 759.5zM254 739.5q0 -239.5 36 -383t90 -192.5t132 -49q88 0 143 65q-47 66 -110 107v131q96 -27 172 -121q53 143 53 442 q0 240 -36 383.5t-90 192.5t-132 49t-132 -49t-90 -192.5t-36 -383z" />
<glyph unicode="R" horiz-adv-x="1024" d="M135 0v1479h357q182 0 293.5 -101.5t111.5 -281.5q0 -279 -238 -363l250 -733h-168l-237 700l-209 -8v-692h-160zM295 831h139q166 0 234.5 63.5t68.5 193t-68.5 192.5t-234.5 63h-139v-512z" />
<glyph unicode="S" d="M74 397h147q4 -133 65.5 -207.5t178.5 -74.5q102 0 160.5 63.5t58.5 179.5q0 78 -44 146.5t-109.5 116t-143.5 104.5t-143.5 110.5t-109.5 137.5t-44 182q0 156 98.5 250t257.5 94q162 0 259.5 -104t105.5 -297h-147q-23 266 -228 266q-92 0 -147.5 -54.5t-55.5 -140.5 q0 -90 61.5 -164.5t148.5 -131t174.5 -120t148.5 -165t61 -232.5q0 -178 -98 -277t-280 -99q-172 0 -271.5 114.5t-103.5 302.5z" />
<glyph unicode="T" horiz-adv-x="796" d="M14 1343v136h766v-136h-303v-1343h-160v1343h-303z" />
<glyph unicode="U" horiz-adv-x="1024" d="M135 389v1090h160v-1086q0 -279 216 -279h1q217 0 217 279v1086h160v-1090q0 -188 -93.5 -298.5t-283.5 -110.5t-283.5 110.5t-93.5 298.5z" />
<glyph unicode="V" d="M33 1479h160l260 -1172h4l260 1172h160l-349 -1479h-147z" />
<glyph unicode="W" horiz-adv-x="1251" d="M12 1479h148l176 -1155h4l221 1155h131l230 -1155h4l164 1155h147l-238 -1479h-135l-233 1161h-4l-234 -1161h-135z" />
<glyph unicode="X" d="M29 0l319 786l-307 693h172l225 -525l209 525h172l-291 -693l353 -786h-172l-271 618l-237 -618h-172z" />
<glyph unicode="Y" d="M33 1479h172l254 -648l246 648h172l-340 -852v-627h-160v627z" />
<glyph unicode="Z" d="M90 0v115l533 1228h-484v136h680v-111l-549 -1233h549v-135h-729z" />
<glyph unicode="[" horiz-adv-x="569" d="M123 -205v1684h377v-82h-242v-1520h242v-82h-377z" />
<glyph unicode="\" horiz-adv-x="569" d="M-20 1499h135l475 -1519h-135z" />
<glyph unicode="]" horiz-adv-x="569" d="M70 -123h241v1520h-241v82h376v-1684h-376v82z" />
<glyph unicode="^" horiz-adv-x="1228" d="M127 604l430 875h115l430 -875h-148l-340 701l-340 -701h-147z" />
<glyph unicode="_" horiz-adv-x="1024" d="M0 -154h1024v-102h-1024v102z" />
<glyph unicode="`" horiz-adv-x="454" d="M-16 1466h159l201 -282h-102z" />
<glyph unicode="a" d="M98 254q0 94 47.5 172t125 130t159.5 87t170 53v76q0 88 -42 139.5t-112 51.5q-78 0 -124 -62.5t-60 -146.5l-135 20q23 137 102.5 224t212.5 87q145 0 225.5 -79.5t80.5 -223.5v-594q0 -147 26 -188h-153l-19 90q-45 -45 -111.5 -77.5t-115.5 -32.5q-125 0 -201 74.5 t-76 199.5zM246 266q0 -164 151 -164q97 0 203 111v360q-59 -18 -113.5 -42.5t-113 -62.5t-93 -90t-34.5 -112z" />
<glyph unicode="b" d="M135 0q25 92 25 287v1192h147v-492q98 98 197 98q137 0 222 -132t85 -420.5t-85 -420.5t-222 -132h-2q-134 0 -219 122l-33 -102h-115zM307 205q33 -45 77 -74t79 -29q98 0 149.5 98.5t51.5 331.5q0 236 -49.5 333.5t-147.5 97.5q-66 -1 -160 -95v-663z" />
<glyph unicode="c" horiz-adv-x="796" d="M72 532.5q0 286.5 78.5 419.5t246.5 133h2q264 0 310 -335h-144q-18 213 -168 213q-98 0 -138 -88.5t-40 -342t40 -342t138 -88.5q74 0 114 50.5t58 183.5h144q-18 -164 -97 -260t-219 -96q-168 0 -246.5 133t-78.5 419.5z" />
<glyph unicode="d" d="M98 532.5q0 288.5 85 420.5t223 132q98 0 196 -98v492h148v-1192q0 -195 24 -287h-139l-6 102h-4q-83 -122 -217 -122h-2q-137 0 -222.5 132t-85.5 420.5zM246 532q0 -233 51 -331.5t149 -98.5q35 0 79 29t77 74v663q-94 94 -160 95q-98 0 -147 -97.5t-49 -333.5z" />
<glyph unicode="e" horiz-adv-x="796" d="M72 532.5q0 286.5 78.5 419.5t246.5 133q164 0 245 -134t81 -373v-70h-504v-59q0 -193 46 -270t153 -77q139 0 178 201l139 -16q-18 -127 -108 -217t-230 -90q-168 0 -246.5 133t-78.5 419.5zM219 631h356q-4 178 -42.5 255t-135.5 77q-86 0 -131 -76t-47 -256z" />
<glyph unicode="f" horiz-adv-x="569" d="M37 942v123h164v217q0 111 50 164t167 53q45 0 114 -12v-115q-35 16 -79 17q-104 0 -105 -113v-211h172v-123h-172v-942h-147v942h-164z" />
<glyph unicode="g" d="M98 -119q0 70 41 126t115 87q-51 16 -83 54t-32 90q0 57 41 94t99 47q-59 43 -93 130t-34 175q0 188 83.5 294.5t225.5 106.5q57 0 113.5 -25.5t80.5 -72.5q56 98 181 98v-135q-16 4 -43 4q-47 0 -93 -41q33 -104 33 -204q0 -190 -79 -285.5t-208 -95.5q-16 0 -48.5 4 t-49.5 4q-25 -6 -49.5 -24.5t-24.5 -45.5q0 -16 6.5 -28.5t21.5 -21.5t30.5 -15t41 -12.5t47 -10.5t55.5 -10t56 -10q139 -31 215 -84.5t76 -171.5q0 -106 -98 -178t-262 -72q-178 0 -271.5 61.5t-93.5 167.5zM233 -88q0 -70 58.5 -110t175.5 -40q221 0 221 152 q0 29 -17.5 49.5t-58.5 35.5t-68.5 23.5t-88 19.5t-78.5 15q-143 -61 -144 -145zM287 706.5q0 -268.5 155.5 -268.5t155.5 268.5t-155.5 268.5t-155.5 -268.5z" />
<glyph unicode="h" d="M147 0v1479h148v-531q47 55 114.5 96t118.5 41q233 0 234 -278v-807h-148v786q0 176 -116 177q-98 0 -203 -132v-831h-148z" />
<glyph unicode="i" horiz-adv-x="454" d="M154 0v1065h147v-1065h-147zM154 1307v172h147v-172h-147z" />
<glyph unicode="j" horiz-adv-x="454" d="M8 -217q37 -8 49 -8q102 0 103 131v1159h147v-1171q0 -129 -52 -185.5t-165 -56.5q-25 0 -82 8v123zM160 1307v172h147v-172h-147z" />
<glyph unicode="k" horiz-adv-x="796" d="M135 0v1479h148v-934h4l282 520h152l-197 -340l246 -725h-152l-192 578h-4l-139 -263v-315h-148z" />
<glyph unicode="l" horiz-adv-x="454" d="M154 0v1479h147v-1479h-147z" />
<glyph unicode="m" horiz-adv-x="1366" d="M164 0v1065h135v-117q117 137 248 137q63 0 116.5 -37.5t73.5 -97.5q123 135 248 135q102 0 158.5 -65.5t56.5 -179.5v-840h-147v819q0 82 -26 113t-85 31q-16 0 -32.5 -3.5t-28 -7.5t-26.5 -13t-22.5 -13t-22.5 -18.5t-18.5 -17.5t-19.5 -19.5t-16 -18.5v-852h-148v819 q0 80 -27.5 112t-88.5 32q-41 0 -79 -20.5t-55.5 -38t-46.5 -52.5v-852h-147z" />
<glyph unicode="n" d="M147 0v1065h140v-117q55 57 123.5 97t117.5 40q233 0 234 -278v-807h-148v786q0 176 -116 177q-98 0 -203 -132v-831h-148z" />
<glyph unicode="o" horiz-adv-x="796" d="M72 532.5q0 286.5 78.5 419.5t246.5 133t247 -133t79 -419.5t-79 -419.5t-247 -133t-246.5 133t-78.5 419.5zM219 532.5q0 -253.5 40 -342t138.5 -88.5t138 88.5t39.5 342t-39.5 342t-138 88.5t-138.5 -88.5t-40 -342z" />
<glyph unicode="p" d="M160 -348v1413h123v-102h4q80 123 216 123h1q137 -1 222 -133t85 -420.5t-85 -420.5t-222 -132q-98 0 -197 98v-426h-147zM307 197q94 -94 160 -95q98 0 147.5 97.5t49.5 332.5q0 233 -51.5 332t-149.5 99q-35 0 -79 -29t-77 -74v-663z" />
<glyph unicode="q" d="M98 532.5q0 288.5 85 420.5t222.5 132t217.5 -122h4v102h123v-1413h-148v426q-98 -98 -196 -98q-137 0 -222.5 132t-85.5 420.5zM246 532q0 -236 49 -333t147 -97q66 1 160 95v663q-33 45 -77 74t-79 29q-98 0 -149 -98.5t-51 -332.5z" />
<glyph unicode="r" horiz-adv-x="569" d="M135 0v1065h148v-129h4q63 92 119.5 120.5t150.5 28.5v-139q-90 0 -153.5 -40t-120.5 -148v-758h-148z" />
<glyph unicode="s" horiz-adv-x="796" d="M78 262l135 29q61 -188 195 -189q61 0 107 48.5t46 113.5q0 68 -46 122t-112.5 94t-133 83t-112.5 110.5t-46 153.5q0 106 78.5 182t197.5 76q242 0 297 -254l-123 -36q-23 82 -62.5 125t-121.5 43q-51 0 -85 -37t-34 -90q0 -59 46 -108.5t112.5 -89.5t133 -84 t113 -115.5t46.5 -164.5q0 -127 -83 -210.5t-208 -83.5q-139 0 -219 71.5t-121 210.5z" />
<glyph unicode="t" horiz-adv-x="569" d="M16 942v123h144v356h147v-356h197v-123h-197v-745q0 -106 107 -107q29 0 90 21v-111q-68 -20 -139 -20q-106 0 -155.5 54t-49.5 175v733h-144z" />
<glyph unicode="u" d="M147 258v807h148v-786q0 -176 117 -177q98 0 202 131v832h148v-1065h-139v117q-55 -57 -124 -97t-118 -40q-233 0 -234 278z" />
<glyph unicode="v" horiz-adv-x="796" d="M37 1065h147l213 -918h4l209 918h148l-262 -1065h-197z" />
<glyph unicode="w" horiz-adv-x="1138" d="M37 1065h139l152 -782h4l172 782h139l176 -782h4l140 782h139l-221 -1065h-123l-185 827h-4l-184 -827h-123z" />
<glyph unicode="x" horiz-adv-x="681" d="M2 0l246 553l-246 512h152l176 -373l155 373h152l-229 -512l270 -553h-152l-192 418l-180 -418h-152z" />
<glyph unicode="y" horiz-adv-x="681" d="M4 1065h152l200 -815h4l164 815h152l-244 -1042q-88 -371 -336 -371h-76v123h46q176 0 221 233z" />
<glyph unicode="z" horiz-adv-x="681" d="M47 0v111l410 831h-377v123h553v-98l-422 -844h422v-123h-586z" />
<glyph unicode="{" horiz-adv-x="569" d="M33 596v82q63 0 91 38t28 134v453q0 96 52 146t140 50h131v-82h-106q-82 0 -82 -106v-482q0 -88 -46 -135t-110 -55v-4q63 -8 109.5 -55.5t46.5 -135.5v-481q0 -106 82 -106h106v-82h-131q-88 0 -140 50t-52 146v453q0 96 -28 134t-91 38z" />
<glyph unicode="|" horiz-adv-x="454" d="M160 -20v1519h135v-1519h-135z" />
<glyph unicode="}" horiz-adv-x="569" d="M94 -143h107q82 0 82 106v481q0 88 46 135.5t109 55.5v4q-63 8 -109 55t-46 135v482q0 106 -82 106h-107v82h131q88 0 140.5 -50t52.5 -146v-453q0 -96 28 -134t91 -38v-82q-63 0 -91 -38t-28 -134v-453q0 -96 -52.5 -146t-140.5 -50h-131v82z" />
<glyph unicode="~" horiz-adv-x="1228" d="M123 489q104 180 268 181q86 0 236 -68q170 -72 215 -72q55 0 97 38t89 110l78 -103q-104 -180 -268 -180q-86 0 -236 68q-170 72 -215 72q-55 0 -97 -38t-89 -110z" />
<glyph unicode="&#xa1;" horiz-adv-x="681" d="M256 -414l33 1041h106l33 -1041h-172zM256 872v193h172v-193h-172z" />
<glyph unicode="&#xa2;" d="M125 553q0 287 79 420t247 133q37 0 71 -6l51 231h99l-60 -266q121 -80 150 -295h-144q-7 94 -40 143l-177 -784q20 -6 50 -6q74 0 113.5 50t58.5 183h143q-18 -164 -97 -260t-218 -96q-47 0 -76 10l-56 -243h-98l64 278q-160 109 -160 508zM272 553q0 -268 47 -354 l177 778q-18 6 -45 6q-98 0 -138.5 -88t-40.5 -342z" />
<glyph unicode="&#xa3;" d="M66 -20v139q176 82 176 360q0 16 -17 197h-159v123h135q-4 20 -17.5 75.5t-20.5 87t-13.5 78.5t-6.5 88q0 184 84 277.5t213 93.5q322 0 346 -426h-135q-16 145 -60 224t-136 79q-82 0 -123 -51t-41 -174q0 -55 9 -112.5t25.5 -133.5t22.5 -106h217v-123h-192 q2 -16 9 -76.5t7 -95.5q0 -152 -49 -266q104 -119 201 -119q152 0 151 270h135q0 -231 -65.5 -320t-218.5 -89q-70 0 -141.5 45t-116.5 110q-98 -137 -219 -155z" />
<glyph unicode="&#xa4;" d="M12 379l94 100q-41 41 -65.5 114t-24.5 146.5t25 146t65 113.5l-94 101l86 86l95 -96q98 92 261.5 92t262.5 -92l94 96l86 -86l-94 -101q41 -41 65.5 -113.5t24.5 -146t-24.5 -146.5t-65.5 -114l94 -100l-86 -86l-94 96q-98 -92 -262 -92t-262 92l-95 -96zM160 739 q0 -135 82 -223t213 -88t213 88t82 223t-82 223.5t-213 88.5t-213 -88.5t-82 -223.5z" />
<glyph unicode="&#xa5;" d="M39 1479h147l273 -680l264 680h147l-221 -557h209v-123h-258l-70 -172v-17h328v-123h-328v-487h-147v487h-328v123h328v17l-70 172h-258v123h209z" />
<glyph unicode="&#xa6;" horiz-adv-x="454" d="M160 -20v581h135v-581h-135zM160 918v581h135v-581h-135z" />
<glyph unicode="&#xa7;" horiz-adv-x="1024" d="M131 821q0 90 70.5 146.5t167.5 56.5q-123 119 -123 258q0 90 67.5 153.5t182.5 63.5q166 0 307 -164l-98 -78q-35 51 -88.5 91.5t-104.5 40.5q-131 0 -131 -121q0 -49 53 -116t128 -135.5t149.5 -141t128 -156.5t53.5 -160q0 -102 -64.5 -162.5t-164.5 -60.5 q123 -143 122 -260q0 -106 -74.5 -177t-181.5 -71q-199 0 -329 172l98 78q35 -61 96.5 -100t130.5 -39q51 0 88 39.5t37 91.5q0 57 -53 128.5t-130 143.5t-153.5 146.5t-130 162.5t-53.5 170zM266 811q0 -74 148.5 -231.5t234.5 -157.5q45 0 77 37t32 84q0 86 -145.5 240.5 t-227.5 154.5q-57 0 -88 -35t-31 -92z" />
<glyph unicode="&#xa8;" horiz-adv-x="454" d="M25 1204v209h135v-209h-135zM295 1204v209h135v-209h-135z" />
<glyph unicode="&#xa9;" horiz-adv-x="1638" d="M53 741q0 319 225.5 538.5t542.5 219.5q315 0 539.5 -219t224.5 -539q0 -322 -224.5 -541.5t-539.5 -219.5q-317 0 -542.5 220t-225.5 541zM201 741q0 -272 178 -455.5t442 -183.5q262 0 439.5 183.5t177.5 455.5q0 268 -178.5 451.5t-438.5 183.5q-264 0 -442 -183 t-178 -452zM393 741q0 207 121 338t326 131q150 0 255 -83t128 -230h-129q-16 84 -85 137t-167 53q-143 0 -222 -96t-79 -246q0 -147 84 -250.5t221 -103.5q100 0 167 56.5t81 146.5h131q-33 -147 -136.5 -236.5t-242.5 -89.5q-203 0 -328 135.5t-125 337.5z" />
<glyph unicode="&#xaa;" horiz-adv-x="544" d="M41 1008q0 106 96 171.5t215 94.5v37q0 98 -86 98q-92 0 -110 -109l-95 13q14 82 65.5 134t137.5 52q96 0 147.5 -48t51.5 -134v-356q0 -90 16 -113h-106l-13 37q-43 -49 -139 -49q-82 0 -131 46t-49 126zM152 1008q0 -45 19 -63.5t65 -18.5q75 -1 116 65v185 q-76 -25 -138 -69t-62 -99z" />
<glyph unicode="&#xab;" horiz-adv-x="1024" d="M168 532l254 316h139l-262 -316l262 -315h-139zM463 532l254 316h139l-262 -316l262 -315h-139z" />
<glyph unicode="&#xac;" horiz-adv-x="1228" d="M82 684v135h1065v-573h-135v438h-930z" />
<glyph unicode="&#xad;" horiz-adv-x="681" d="M88 465v135h504v-135h-504z" />
<glyph unicode="&#xae;" horiz-adv-x="1638" d="M53 741q0 319 225.5 538.5t542.5 219.5q315 0 539.5 -219t224.5 -539q0 -322 -224.5 -541.5t-539.5 -219.5q-317 0 -542.5 220t-225.5 541zM201 741q0 -272 178 -455.5t442 -183.5q262 0 439.5 183.5t177.5 455.5q0 268 -178.5 451.5t-438.5 183.5q-264 0 -442 -183 t-178 -452zM530 291v889h338q307 0 308 -252q0 -111 -60.5 -170.5t-154.5 -73.5l239 -393h-162l-235 389h-137v-389h-136zM666 795h147q129 0 178 26.5t49 112.5q0 68 -45 99.5t-149 31.5h-180v-270z" />
<glyph unicode="&#xaf;" horiz-adv-x="454" d="M-45 1257v99h545v-99h-545z" />
<glyph unicode="&#xb0;" horiz-adv-x="819" d="M106 1196q0 125 89.5 214t214.5 89t214 -89t89 -214t-89 -214t-214 -89t-214.5 89t-89.5 214zM213 1196q0 -86 56.5 -147.5t140.5 -61.5t140 61.5t56 147.5t-56 147.5t-140 61.5t-140.5 -61.5t-56.5 -147.5z" />
<glyph unicode="&#xb1;" horiz-adv-x="1228" d="M82 0v135h1065v-135h-1065zM82 582v135h465v348h135v-348h465v-135h-465v-349h-135v349h-465z" />
<glyph unicode="&#xb2;" horiz-adv-x="544" d="M45 598v102q35 98 120 210t146.5 202t61.5 166q0 115 -90 115q-55 0 -87 -34t-40 -120h-103q16 260 228 260q98 0 156.5 -57.5t58.5 -161.5q0 -78 -39 -157t-90.5 -137t-110.5 -137t-88 -144h332v-107h-455z" />
<glyph unicode="&#xb3;" horiz-adv-x="544" d="M37 811h110q8 -119 115 -119t107 156q0 90 -47.5 128t-149.5 40v106q96 -2 138 31t42 125q0 115 -90 115q-49 0 -68.5 -21.5t-21.5 -68.5h-111q0 88 49.5 142t145.5 54q88 0 149.5 -55t61.5 -160q0 -176 -123 -207v-4q139 -45 139 -223q0 -133 -61.5 -198.5t-161.5 -65.5 q-106 0 -164.5 61.5t-58.5 163.5z" />
<glyph unicode="&#xb4;" horiz-adv-x="454" d="M111 1184l200 282h160l-258 -282h-102z" />
<glyph unicode="&#xb5;" d="M147 -348v1413h148v-786q0 -176 117 -177q98 0 202 131v832h148v-1065h-139v117q-55 -57 -124 -97t-118 -40t-86 12v-340h-148z" />
<glyph unicode="&#xb6;" horiz-adv-x="1024" d="M23 1081q0 199 124.5 298.5t305.5 99.5h575v-111h-143v-1540h-135v1540h-175v-1540h-135v868q-186 0 -301.5 108.5t-115.5 276.5z" />
<glyph unicode="&#xb7;" horiz-adv-x="454" d="M127 532.5q0 40.5 29.5 70.5t70.5 30t71 -30t30 -70.5t-30 -70.5t-71 -30t-70.5 30t-29.5 70.5z" />
<glyph unicode="&#xb8;" horiz-adv-x="454" d="M16 -410l29 91q76 -29 133 -29q61 0 99 23.5t38 60.5t-29.5 62.5t-80.5 25.5q-33 0 -86 -21l-29 29l123 168h78l-94 -119l4 -4q20 12 63 12q68 0 115 -38.5t47 -108.5q0 -82 -64.5 -133t-156.5 -51q-115 -1 -189 32z" />
<glyph unicode="&#xb9;" horiz-adv-x="544" d="M106 1360v74q74 16 138 65h88v-803h106v-98h-327v98h94v672z" />
<glyph unicode="&#xba;" horiz-adv-x="477" d="M27 1167q0 174 50 253t159 79q111 0 162 -80t51 -252t-51.5 -251.5t-161.5 -79.5q-109 0 -159 78.5t-50 252.5zM141 1167.5q0 -139.5 20.5 -188.5t74.5 -49q55 0 76.5 49t21.5 188.5t-21.5 188.5t-76.5 49q-53 0 -74 -49t-21 -188.5z" />
<glyph unicode="&#xbb;" horiz-adv-x="1024" d="M168 217l262 315l-262 316h139l254 -316l-254 -315h-139zM463 217l262 315l-262 316h139l254 -316l-254 -315h-139z" />
<glyph unicode="&#xbc;" horiz-adv-x="1363" d="M139 1360v74q74 16 137 65h89v-803h106v-98h-328v98h95v672zM186 -20l899 1519h127l-899 -1519h-127zM784 197v92l246 598h154v-584h102v-106h-102v-197h-115v197h-285zM899 303h170v424h-4z" />
<glyph unicode="&#xbd;" horiz-adv-x="1363" d="M139 1360v74q74 16 137 65h89v-803h106v-98h-328v98h95v672zM178 -20l899 1519h127l-899 -1519h-127zM856 0v102q35 98 120 210t146.5 202t61.5 166q0 115 -90 115q-55 0 -87 -34t-40 -120h-103q16 260 228 260q98 0 156.5 -57.5t58.5 -161.5q0 -78 -39 -157t-90.5 -137 t-110.5 -137t-88 -145h332v-106h-455z" />
<glyph unicode="&#xbe;" horiz-adv-x="1363" d="M78 811h110q8 -119 115 -119t107 156q0 90 -47.5 128t-149.5 40v106q96 -2 138 31t42 125q0 115 -90 115q-49 0 -68.5 -21.5t-21.5 -68.5h-111q0 88 49.5 142t145.5 54q88 0 149.5 -55t61.5 -160q0 -176 -123 -207v-4q139 -45 139 -223q0 -133 -61.5 -198.5t-161.5 -65.5 q-106 0 -164.5 61.5t-58.5 163.5zM178 -20l899 1519h127l-899 -1519h-127zM784 197v92l246 598h154v-584h102v-106h-102v-197h-115v197h-285zM899 303h170v424h-4z" />
<glyph unicode="&#xbf;" horiz-adv-x="796" d="M131 -160q0 94 28.5 175t70.5 137.5t84 111.5t71 127t29 154v82h114v-103q0 -106 -38.5 -200.5t-86 -152.5t-86 -146t-38.5 -185q0 -74 35.5 -112.5t82.5 -38.5q61 0 100.5 54t45.5 122l123 -25q-10 -121 -83 -197.5t-192 -76.5q-111 0 -185.5 71.5t-74.5 202.5zM397 872 v193h172v-193h-172z" />
<glyph unicode="&#xc0;" d="M18 0l326 1479h221l326 -1479h-160l-88 438h-377l-88 -438h-160zM211 1839h160l200 -283h-102zM289 573h332l-164 795h-4z" />
<glyph unicode="&#xc1;" d="M18 0l326 1479h221l326 -1479h-160l-88 438h-377l-88 -438h-160zM289 573h332l-164 795h-4zM338 1556l201 283h159l-258 -283h-102z" />
<glyph unicode="&#xc2;" d="M18 0l326 1479h221l326 -1479h-160l-88 438h-377l-88 -438h-160zM178 1556l207 283h139l207 -283h-131l-145 209l-146 -209h-131zM289 573h332l-164 795h-4z" />
<glyph unicode="&#xc3;" d="M18 0l326 1479h221l326 -1479h-160l-88 438h-377l-88 -438h-160zM166 1577q2 74 46 137.5t112 63.5q55 0 145 -45t123 -45q66 0 78 102h73q-12 -201 -159 -201q-45 0 -135.5 45t-126.5 45q-74 0 -82 -102h-74zM289 573h332l-164 795h-4z" />
<glyph unicode="&#xc4;" d="M18 0l326 1479h221l326 -1479h-160l-88 438h-377l-88 -438h-160zM252 1577v209h135v-209h-135zM289 573h332l-164 795h-4zM522 1577v209h135v-209h-135z" />
<glyph unicode="&#xc5;" d="M18 0l326 1479h221l326 -1479h-160l-88 438h-377l-88 -438h-160zM260 1751q0 80 56.5 137.5t138.5 57.5t138 -57.5t56 -137.5t-56 -137.5t-138 -57.5t-138.5 57.5t-56.5 137.5zM289 573h332l-164 795h-4zM346 1751q0 -43 33 -76t76 -33t75.5 33t32.5 76t-32.5 76 t-75.5 33t-76 -33t-33 -76z" />
<glyph unicode="&#xc6;" horiz-adv-x="1478" d="M18 0l594 1479h768v-136h-487v-503h381v-135h-381v-570h512v-135h-672v438h-377l-168 -438h-170zM410 573h323v816h-4z" />
<glyph unicode="&#xc7;" horiz-adv-x="1024" d="M94 739.5q0 403.5 109.5 581.5t318.5 178q342 0 379 -467h-160q-29 332 -219 332q-141 0 -204.5 -142.5t-63.5 -482.5t63.5 -482t204.5 -142q117 0 177.5 89t62.5 288h160q-4 -246 -107.5 -379t-292.5 -133q-209 0 -318.5 178t-109.5 581.5zM301 -410l29 91 q76 -29 133 -29q61 0 99 23.5t38 60.5t-29.5 62.5t-81.5 25.5q-33 0 -86 -21l-28 29l123 168h77l-94 -119l4 -4q23 12 64 12q70 0 116 -38.5t46 -108.5q0 -82 -64.5 -133t-157.5 -51q-114 -1 -188 32z" />
<glyph unicode="&#xc8;" d="M135 0v1479h676v-136h-516v-503h381v-135h-381v-570h541v-135h-701zM223 1839h160l201 -283h-103z" />
<glyph unicode="&#xc9;" d="M135 0v1479h676v-136h-516v-503h381v-135h-381v-570h541v-135h-701zM350 1556l201 283h160l-258 -283h-103z" />
<glyph unicode="&#xca;" d="M135 0v1479h676v-136h-516v-503h381v-135h-381v-570h541v-135h-701zM190 1556l207 283h140l206 -283h-131l-145 209l-145 -209h-132z" />
<glyph unicode="&#xcb;" d="M135 0v1479h676v-136h-516v-503h381v-135h-381v-570h541v-135h-701zM264 1577v209h135v-209h-135zM535 1577v209h135v-209h-135z" />
<glyph unicode="&#xcc;" horiz-adv-x="454" d="M-16 1839h159l201 -283h-102zM147 0v1479h160v-1479h-160z" />
<glyph unicode="&#xcd;" horiz-adv-x="454" d="M111 1556l200 283h160l-258 -283h-102zM147 0v1479h160v-1479h-160z" />
<glyph unicode="&#xce;" horiz-adv-x="454" d="M-49 1556l207 283h139l207 -283h-131l-146 209l-145 -209h-131zM147 0v1479h160v-1479h-160z" />
<glyph unicode="&#xcf;" horiz-adv-x="454" d="M25 1577v209h135v-209h-135zM147 0v1479h160v-1479h-160zM295 1577v209h135v-209h-135z" />
<glyph unicode="&#xd0;" horiz-adv-x="1024" d="M25 705v135h110v639h275q121 0 210 -37t155.5 -120t100 -228.5t33.5 -354.5t-33.5 -354t-100 -228t-156 -120t-209.5 -37h-275v705h-110zM295 135h86q94 0 157.5 23.5t113.5 88t74 185.5t24 307.5t-24 307t-74 185t-113.5 88t-157.5 23.5h-86v-503h246v-135h-246v-570z " />
<glyph unicode="&#xd1;" horiz-adv-x="1024" d="M115 0v1479h250l380 -1090h5v1090h159v-1479h-172l-458 1286h-5v-1286h-159zM223 1577q2 74 46 137.5t112 63.5q55 0 145 -45t123 -45q66 0 78 102h74q-12 -201 -160 -201q-45 0 -135 45t-127 45q-74 0 -82 -102h-74z" />
<glyph unicode="&#xd2;" horiz-adv-x="1024" d="M94 739.5q0 759.5 418 759.5t418 -759.5t-418 -759.5t-418 759.5zM254 739.5q0 -239.5 36 -383t90 -192.5t132 -49t132 49t90 192.5t36 383t-36 383t-90 192.5t-132 49t-132 -49t-90 -192.5t-36 -383zM268 1839h160l201 -283h-103z" />
<glyph unicode="&#xd3;" horiz-adv-x="1024" d="M94 739.5q0 759.5 418 759.5t418 -759.5t-418 -759.5t-418 759.5zM254 739.5q0 -239.5 36 -383t90 -192.5t132 -49t132 49t90 192.5t36 383t-36 383t-90 192.5t-132 49t-132 -49t-90 -192.5t-36 -383zM395 1556l201 283h160l-258 -283h-103z" />
<glyph unicode="&#xd4;" horiz-adv-x="1024" d="M94 739.5q0 759.5 418 759.5t418 -759.5t-418 -759.5t-418 759.5zM236 1556l206 283h140l206 -283h-131l-145 209l-145 -209h-131zM254 739.5q0 -239.5 36 -383t90 -192.5t132 -49t132 49t90 192.5t36 383t-36 383t-90 192.5t-132 49t-132 -49t-90 -192.5t-36 -383z" />
<glyph unicode="&#xd5;" horiz-adv-x="1024" d="M94 739.5q0 759.5 418 759.5t418 -759.5t-418 -759.5t-418 759.5zM223 1577q2 74 46 137.5t112 63.5q55 0 145 -45t123 -45q66 0 78 102h74q-12 -201 -160 -201q-45 0 -135 45t-127 45q-74 0 -82 -102h-74zM254 739.5q0 -239.5 36 -383t90 -192.5t132 -49t132 49 t90 192.5t36 383t-36 383t-90 192.5t-132 49t-132 -49t-90 -192.5t-36 -383z" />
<glyph unicode="&#xd6;" horiz-adv-x="1024" d="M94 739.5q0 759.5 418 759.5t418 -759.5t-418 -759.5t-418 759.5zM254 739.5q0 -239.5 36 -383t90 -192.5t132 -49t132 49t90 192.5t36 383t-36 383t-90 192.5t-132 49t-132 -49t-90 -192.5t-36 -383zM309 1577v209h135v-209h-135zM580 1577v209h135v-209h-135z" />
<glyph unicode="&#xd7;" horiz-adv-x="1228" d="M82 98l434 434l-434 435l98 98l434 -436l435 436l98 -98l-434 -435l434 -434l-98 -98l-435 436l-434 -436z" />
<glyph unicode="&#xd8;" horiz-adv-x="1024" d="M61 -246l156 389q-123 190 -123 596q0 760 418 760q125 0 213 -69l86 217h111l-119 -304q127 -193 127 -604q0 -760 -418 -759q-131 -1 -221 77l-119 -303h-111zM254 739q0 -254 39 -397h4l371 942q-61 80 -156 80q-78 0 -132 -49t-90 -192.5t-36 -383.5zM350 205 q59 -90 162 -90q78 0 132 49t90 192.5t36 382.5q0 256 -41 416h-4z" />
<glyph unicode="&#xd9;" horiz-adv-x="1024" d="M135 389v1090h160v-1086q0 -279 217 -278.5t217 278.5v1086h160v-1090q0 -188 -93.5 -298.5t-283.5 -110.5t-283.5 110.5t-93.5 298.5zM268 1839h160l201 -283h-103z" />
<glyph unicode="&#xda;" horiz-adv-x="1024" d="M135 389v1090h160v-1086q0 -279 217 -278.5t217 278.5v1086h160v-1090q0 -188 -93.5 -298.5t-283.5 -110.5t-283.5 110.5t-93.5 298.5zM395 1556l201 283h160l-258 -283h-103z" />
<glyph unicode="&#xdb;" horiz-adv-x="1024" d="M135 389v1090h160v-1086q0 -279 217 -278.5t217 278.5v1086h160v-1090q0 -188 -93.5 -298.5t-283.5 -110.5t-283.5 110.5t-93.5 298.5zM236 1556l206 283h140l206 -283h-131l-145 209l-145 -209h-131z" />
<glyph unicode="&#xdc;" horiz-adv-x="1024" d="M135 389v1090h160v-1086q0 -279 217 -278.5t217 278.5v1086h160v-1090q0 -188 -93.5 -298.5t-283.5 -110.5t-283.5 110.5t-93.5 298.5zM309 1577v209h135v-209h-135zM580 1577v209h135v-209h-135z" />
<glyph unicode="&#xdd;" d="M33 1479h172l254 -648l246 648h172l-340 -852v-627h-160v627zM338 1556l201 283h159l-258 -283h-102z" />
<glyph unicode="&#xde;" d="M115 0v1479h159v-332h189q178 0 285.5 -110.5t107.5 -295t-107.5 -295t-285.5 -110.5h-189v-336h-159zM274 471h168q254 0 254 270.5t-254 270.5h-168v-541z" />
<glyph unicode="&#xdf;" d="M147 0v1188q0 127 81 219t218 92q150 0 239 -101.5t89 -271.5q0 -215 -147 -299q90 -45 143 -135t53 -270q0 -442 -280 -442q-57 0 -113 24v127q47 -29 100 -29q145 0 146 295q0 197 -49 277t-172 80v123q88 6 130 62t42 189q0 131 -48.5 189.5t-123.5 58.5 q-70 0 -115 -52t-45 -136v-1188h-148z" />
<glyph unicode="&#xe0;" d="M98 254q0 94 47.5 172t125 130t159.5 87t170 53v76q0 88 -42 139.5t-112 51.5q-78 0 -124 -62.5t-60 -146.5l-135 20q23 137 102.5 224t212.5 87q145 0 225.5 -79.5t80.5 -223.5v-594q0 -147 26 -188h-153l-19 90q-45 -45 -111.5 -77.5t-115.5 -32.5q-125 0 -201 74.5 t-76 199.5zM211 1466h160l200 -282h-102zM246 266q0 -164 151 -164q97 0 203 111v360q-59 -18 -113.5 -42.5t-113 -62.5t-93 -90t-34.5 -112z" />
<glyph unicode="&#xe1;" d="M98 254q0 94 47.5 172t125 130t159.5 87t170 53v76q0 88 -42 139.5t-112 51.5q-78 0 -124 -62.5t-60 -146.5l-135 20q23 137 102.5 224t212.5 87q145 0 225.5 -79.5t80.5 -223.5v-594q0 -147 26 -188h-153l-19 90q-45 -45 -111.5 -77.5t-115.5 -32.5q-125 0 -201 74.5 t-76 199.5zM246 266q0 -164 151 -164q97 0 203 111v360q-59 -18 -113.5 -42.5t-113 -62.5t-93 -90t-34.5 -112zM338 1184l201 282h159l-258 -282h-102z" />
<glyph unicode="&#xe2;" d="M98 254q0 94 47.5 172t125 130t159.5 87t170 53v76q0 88 -42 139.5t-112 51.5q-78 0 -124 -62.5t-60 -146.5l-135 20q23 137 102.5 224t212.5 87q145 0 225.5 -79.5t80.5 -223.5v-594q0 -147 26 -188h-153l-19 90q-45 -45 -111.5 -77.5t-115.5 -32.5q-125 0 -201 74.5 t-76 199.5zM178 1184l207 282h139l207 -282h-131l-145 209l-146 -209h-131zM246 266q0 -164 151 -164q97 0 203 111v360q-59 -18 -113.5 -42.5t-113 -62.5t-93 -90t-34.5 -112z" />
<glyph unicode="&#xe3;" d="M98 254q0 94 47.5 172t125 130t159.5 87t170 53v76q0 88 -42 139.5t-112 51.5q-78 0 -124 -62.5t-60 -146.5l-135 20q23 137 102.5 224t212.5 87q145 0 225.5 -79.5t80.5 -223.5v-594q0 -147 26 -188h-153l-19 90q-45 -45 -111.5 -77.5t-115.5 -32.5q-125 0 -201 74.5 t-76 199.5zM166 1204q2 74 46 137.5t112 63.5q55 0 145 -45t123 -45q66 0 78 102h73q-12 -201 -159 -200q-45 0 -135.5 45t-126.5 45q-74 -1 -82 -103h-74zM246 266q0 -164 151 -164q97 0 203 111v360q-59 -18 -113.5 -42.5t-113 -62.5t-93 -90t-34.5 -112z" />
<glyph unicode="&#xe4;" d="M98 254q0 94 47.5 172t125 130t159.5 87t170 53v76q0 88 -42 139.5t-112 51.5q-78 0 -124 -62.5t-60 -146.5l-135 20q23 137 102.5 224t212.5 87q145 0 225.5 -79.5t80.5 -223.5v-594q0 -147 26 -188h-153l-19 90q-45 -45 -111.5 -77.5t-115.5 -32.5q-125 0 -201 74.5 t-76 199.5zM246 266q0 -164 151 -164q97 0 203 111v360q-59 -18 -113.5 -42.5t-113 -62.5t-93 -90t-34.5 -112zM252 1204v209h135v-209h-135zM522 1204v209h135v-209h-135z" />
<glyph unicode="&#xe5;" d="M98 254q0 94 47.5 172t125 130t159.5 87t170 53v76q0 88 -42 139.5t-112 51.5q-78 0 -124 -62.5t-60 -146.5l-135 20q23 137 102.5 224t212.5 87q145 0 225.5 -79.5t80.5 -223.5v-594q0 -147 26 -188h-153l-19 90q-45 -45 -111.5 -77.5t-115.5 -32.5q-125 0 -201 74.5 t-76 199.5zM246 266q0 -164 151 -164q97 0 203 111v360q-59 -18 -113.5 -42.5t-113 -62.5t-93 -90t-34.5 -112zM260 1378q0 80 56.5 137.5t138.5 57.5t138 -57.5t56 -137.5t-56 -137t-138 -57t-138.5 57t-56.5 137zM346 1378q0 -43 33 -75.5t76 -32.5t75.5 32.5t32.5 75.5 t-32.5 76t-75.5 33t-76 -33t-33 -76z" />
<glyph unicode="&#xe6;" horiz-adv-x="1251" d="M61 254q0 92 46.5 171t122 132t148.5 86t148 53v76q0 94 -36.5 142.5t-100.5 48.5q-59 0 -104 -64.5t-60 -144.5l-135 20q23 137 102.5 224t210.5 87q147 0 218 -131q92 131 231 131q164 0 245 -134t81 -373v-70h-504v-59q0 -178 59.5 -262.5t138.5 -84.5q139 0 179 201 l139 -16q-18 -127 -105.5 -217t-214.5 -90q-190 0 -266 145q-133 -145 -266 -145q-125 0 -201 74.5t-76 199.5zM209 266q0 -164 151 -164q45 0 92 33t74 78v360q-317 -133 -317 -307zM674 631h356q-4 178 -43 255t-135 77q-78 0 -127 -82t-51 -250z" />
<glyph unicode="&#xe7;" horiz-adv-x="796" d="M72 532.5q0 286.5 78.5 419.5t246.5 133q265 1 312 -335h-144q-18 213 -168 213q-98 0 -138 -88.5t-40 -342t40 -342t138 -88.5q74 0 114 50.5t58 183.5h144q-18 -164 -97 -260t-219 -96q-168 0 -246.5 133t-78.5 419.5zM188 -410l29 91q76 -29 133 -29q61 0 99 23.5 t38 60.5t-29.5 62.5t-80.5 25.5q-33 0 -86 -21l-29 29l123 168h78l-94 -119l4 -4q20 12 63 12q68 0 115 -38.5t47 -108.5q0 -82 -64.5 -133t-156.5 -51q-115 -1 -189 32z" />
<glyph unicode="&#xe8;" horiz-adv-x="796" d="M72 532.5q0 286.5 78.5 419.5t246.5 133q164 0 245 -134t81 -373v-70h-504v-59q0 -193 46 -270t153 -77q139 0 178 201l139 -16q-18 -127 -108 -217t-230 -90q-168 0 -246.5 133t-78.5 419.5zM156 1466h159l201 -282h-102zM219 631h356q-4 178 -42.5 255t-135.5 77 q-86 0 -131 -76t-47 -256z" />
<glyph unicode="&#xe9;" horiz-adv-x="796" d="M72 532.5q0 286.5 78.5 419.5t246.5 133q164 0 245 -134t81 -373v-70h-504v-59q0 -193 46 -270t153 -77q139 0 178 201l139 -16q-18 -127 -108 -217t-230 -90q-168 0 -246.5 133t-78.5 419.5zM219 631h356q-4 178 -42.5 255t-135.5 77q-86 0 -131 -76t-47 -256zM283 1184 l200 282h160l-258 -282h-102z" />
<glyph unicode="&#xea;" horiz-adv-x="796" d="M72 532.5q0 286.5 78.5 419.5t246.5 133q164 0 245 -134t81 -373v-70h-504v-59q0 -193 46 -270t153 -77q139 0 178 201l139 -16q-18 -127 -108 -217t-230 -90q-168 0 -246.5 133t-78.5 419.5zM123 1184l207 282h139l207 -282h-131l-146 209l-145 -209h-131zM219 631h356 q-4 178 -42.5 255t-135.5 77q-86 0 -131 -76t-47 -256z" />
<glyph unicode="&#xeb;" horiz-adv-x="796" d="M72 532.5q0 286.5 78.5 419.5t246.5 133q164 0 245 -134t81 -373v-70h-504v-59q0 -193 46 -270t153 -77q139 0 178 201l139 -16q-18 -127 -108 -217t-230 -90q-168 0 -246.5 133t-78.5 419.5zM197 1204v209h135v-209h-135zM219 631h356q-4 178 -42.5 255t-135.5 77 q-86 0 -131 -76t-47 -256zM467 1204v209h135v-209h-135z" />
<glyph unicode="&#xec;" horiz-adv-x="454" d="M-16 1466h159l201 -282h-102zM154 0v1065h147v-1065h-147z" />
<glyph unicode="&#xed;" horiz-adv-x="454" d="M111 1184l200 282h160l-258 -282h-102zM154 0v1065h147v-1065h-147z" />
<glyph unicode="&#xee;" horiz-adv-x="454" d="M-49 1184l207 282h139l207 -282h-131l-146 209l-145 -209h-131zM154 0v1065h147v-1065h-147z" />
<glyph unicode="&#xef;" horiz-adv-x="454" d="M25 1204v209h135v-209h-135zM154 0v1065h147v-1065h-147zM295 1204v209h135v-209h-135z" />
<glyph unicode="&#xf0;" horiz-adv-x="796" d="M72 532.5q0 286.5 78.5 419.5t246.5 133q70 0 101 -18q-20 80 -68 162l-186 -70l-49 94l174 66q-46 64 -99 115l136 45q59 -55 96 -109l200 76l50 -94l-191 -72q162 -285 162 -748q0 -287 -79 -419.5t-247 -132.5t-246.5 133t-78.5 419.5zM219 532.5q0 -253.5 40 -342 t138.5 -88.5t138 88.5t39.5 342t-39.5 342t-138 88.5t-138.5 -88.5t-40 -342z" />
<glyph unicode="&#xf1;" d="M147 0v1065h140v-117q55 57 123.5 97t117.5 40q233 0 234 -278v-807h-148v786q0 176 -116 177q-98 0 -203 -132v-831h-148zM166 1204q2 74 46 137.5t112 63.5q55 0 145 -45t123 -45q66 0 78 102h73q-12 -201 -159 -200q-45 0 -135.5 45t-126.5 45q-74 -1 -82 -103h-74z " />
<glyph unicode="&#xf2;" horiz-adv-x="796" d="M72 532.5q0 286.5 78.5 419.5t246.5 133t247 -133t79 -419.5t-79 -419.5t-247 -133t-246.5 133t-78.5 419.5zM156 1466h159l201 -282h-102zM219 532.5q0 -253.5 40 -342t138.5 -88.5t138 88.5t39.5 342t-39.5 342t-138 88.5t-138.5 -88.5t-40 -342z" />
<glyph unicode="&#xf3;" horiz-adv-x="796" d="M72 532.5q0 286.5 78.5 419.5t246.5 133t247 -133t79 -419.5t-79 -419.5t-247 -133t-246.5 133t-78.5 419.5zM219 532.5q0 -253.5 40 -342t138.5 -88.5t138 88.5t39.5 342t-39.5 342t-138 88.5t-138.5 -88.5t-40 -342zM283 1184l200 282h160l-258 -282h-102z" />
<glyph unicode="&#xf4;" horiz-adv-x="796" d="M72 532.5q0 286.5 78.5 419.5t246.5 133t247 -133t79 -419.5t-79 -419.5t-247 -133t-246.5 133t-78.5 419.5zM123 1184l207 282h139l207 -282h-131l-146 209l-145 -209h-131zM219 532.5q0 -253.5 40 -342t138.5 -88.5t138 88.5t39.5 342t-39.5 342t-138 88.5 t-138.5 -88.5t-40 -342z" />
<glyph unicode="&#xf5;" horiz-adv-x="796" d="M72 532.5q0 286.5 78.5 419.5t246.5 133t247 -133t79 -419.5t-79 -419.5t-247 -133t-246.5 133t-78.5 419.5zM111 1204q2 74 46 137.5t111 63.5q55 0 145.5 -45t123.5 -45q66 0 77 102h74q-12 -201 -160 -200q-45 0 -135 45t-127 45q-74 -1 -82 -103h-73zM219 532.5 q0 -253.5 40 -342t138.5 -88.5t138 88.5t39.5 342t-39.5 342t-138 88.5t-138.5 -88.5t-40 -342z" />
<glyph unicode="&#xf6;" horiz-adv-x="796" d="M72 532.5q0 286.5 78.5 419.5t246.5 133t247 -133t79 -419.5t-79 -419.5t-247 -133t-246.5 133t-78.5 419.5zM197 1204v209h135v-209h-135zM219 532.5q0 -253.5 40 -342t138.5 -88.5t138 88.5t39.5 342t-39.5 342t-138 88.5t-138.5 -88.5t-40 -342zM467 1204v209h135 v-209h-135z" />
<glyph unicode="&#xf7;" horiz-adv-x="1228" d="M82 465v135h1065v-135h-1065zM479 114.5q0 55.5 40 95.5t95.5 40t95.5 -40t40 -95.5t-40 -95t-95.5 -39.5t-95.5 39.5t-40 95zM479 950.5q0 55.5 40 95t95.5 39.5t95.5 -39.5t40 -95t-40 -95.5t-95.5 -40t-95.5 40t-40 95.5z" />
<glyph unicode="&#xf8;" horiz-adv-x="796" d="M43 -246l129 326q-100 131 -100 452q0 287 78.5 420t246.5 133q96 0 156 -41l96 246h103l-125 -315q96 -129 96 -443q0 -287 -79 -419.5t-247 -132.5q-90 0 -147 36l-105 -262h-102zM219 532q0 -184 19 -278h4l262 670q-37 39 -107 39q-98 0 -138 -88.5t-40 -342.5z M297 137q33 -35 100 -35q98 0 138 88.5t40 341.5q0 170 -16 265h-4z" />
<glyph unicode="&#xf9;" d="M147 258v807h148v-786q0 -176 117 -177q98 0 202 131v832h148v-1065h-139v117q-55 -57 -124 -97t-118 -40q-233 0 -234 278zM211 1466h160l200 -282h-102z" />
<glyph unicode="&#xfa;" d="M147 258v807h148v-786q0 -176 117 -177q98 0 202 131v832h148v-1065h-139v117q-55 -57 -124 -97t-118 -40q-233 0 -234 278zM338 1184l201 282h159l-258 -282h-102z" />
<glyph unicode="&#xfb;" d="M147 258v807h148v-786q0 -176 117 -177q98 0 202 131v832h148v-1065h-139v117q-55 -57 -124 -97t-118 -40q-233 0 -234 278zM178 1184l207 282h139l207 -282h-131l-145 209l-146 -209h-131z" />
<glyph unicode="&#xfc;" d="M147 258v807h148v-786q0 -176 117 -177q98 0 202 131v832h148v-1065h-139v117q-55 -57 -124 -97t-118 -40q-233 0 -234 278zM252 1204v209h135v-209h-135zM522 1204v209h135v-209h-135z" />
<glyph unicode="&#xfd;" horiz-adv-x="681" d="M4 1065h152l200 -815h4l164 815h152l-244 -1042q-88 -371 -336 -371h-76v123h46q176 0 221 233zM225 1184l201 282h160l-258 -282h-103z" />
<glyph unicode="&#xfe;" d="M160 -348v1827h139v-492h4q78 98 201 98q137 0 222 -132t85 -420.5t-85 -420.5t-222 -132q-98 0 -197 98v-426h-147zM307 197q94 -94 160 -95q98 0 147.5 97.5t49.5 332.5q0 233 -51.5 332t-149.5 99q-35 0 -79 -29t-77 -74v-663z" />
<glyph unicode="&#xff;" horiz-adv-x="681" d="M4 1065h152l200 -815h4l164 815h152l-244 -1042q-88 -371 -336 -371h-76v123h46q176 0 221 233zM139 1204v209h135v-209h-135zM410 1204v209h135v-209h-135z" />
<glyph unicode="&#x152;" horiz-adv-x="1478" d="M74 739.5q0 288.5 58 451.5t172 225.5t310 62.5h766v-136h-479v-503h365v-135h-365v-570h504v-135h-791q-197 0 -310.5 62.5t-171.5 225.5t-58 451.5zM233 739q0 -338 80 -469t240 -131q104 0 146 43t42 162v791q0 119 -42 161.5t-146 42.5q-160 0 -240 -131t-80 -469z " />
<glyph unicode="&#x153;" horiz-adv-x="1251" d="M47 532.5q0 286.5 79 419.5t247 133q193 0 258 -180q78 180 225 180q164 0 245 -134t81 -373v-70h-480v-59q0 -182 48.5 -264.5t126.5 -82.5q143 0 174 201l139 -16q-14 -125 -101.5 -216t-214.5 -91q-172 0 -249 165q-66 -166 -252 -165q-168 0 -247 133t-79 419.5z M195 532.5q0 -253.5 39.5 -342t138 -88.5t140.5 88.5t42 342t-42 342t-140.5 88.5t-138 -88.5t-39.5 -342zM702 631h332q-4 178 -43 255t-135 77q-144 0 -154 -332z" />
<glyph unicode="&#x178;" d="M33 1479h172l254 -648l246 648h172l-340 -852v-627h-160v627zM252 1577v209h135v-209h-135zM522 1577v209h135v-209h-135z" />
<glyph unicode="&#x2c6;" horiz-adv-x="454" d="M-49 1184l207 282h139l207 -282h-131l-146 209l-145 -209h-131z" />
<glyph unicode="&#x2dc;" horiz-adv-x="454" d="M-61 1204q2 74 46 137.5t111 63.5q55 0 145.5 -45t123.5 -45q66 0 77 102h74q-12 -201 -160 -200q-45 0 -135 45t-127 45q-74 -1 -82 -103h-73z" />
<glyph unicode="&#x2000;" horiz-adv-x="973" />
<glyph unicode="&#x2001;" horiz-adv-x="1946" />
<glyph unicode="&#x2002;" horiz-adv-x="973" />
<glyph unicode="&#x2003;" horiz-adv-x="1946" />
<glyph unicode="&#x2004;" horiz-adv-x="648" />
<glyph unicode="&#x2005;" horiz-adv-x="486" />
<glyph unicode="&#x2006;" horiz-adv-x="324" />
<glyph unicode="&#x2007;" horiz-adv-x="324" />
<glyph unicode="&#x2008;" horiz-adv-x="243" />
<glyph unicode="&#x2009;" horiz-adv-x="389" />
<glyph unicode="&#x200a;" horiz-adv-x="108" />
<glyph unicode="&#x2010;" horiz-adv-x="681" d="M88 465v135h504v-135h-504z" />
<glyph unicode="&#x2011;" horiz-adv-x="681" d="M88 465v135h504v-135h-504z" />
<glyph unicode="&#x2012;" horiz-adv-x="681" d="M88 465v135h504v-135h-504z" />
<glyph unicode="&#x2013;" horiz-adv-x="1024" d="M0 483v99h1024v-99h-1024z" />
<glyph unicode="&#x2014;" horiz-adv-x="2048" d="M0 483v99h2048v-99h-2048z" />
<glyph unicode="&#x2018;" horiz-adv-x="454" d="M147 999v205l123 295h62l-94 -307h81v-193h-172z" />
<glyph unicode="&#x2019;" horiz-adv-x="454" d="M123 979l94 307h-82v193h172v-205l-123 -295h-61z" />
<glyph unicode="&#x201a;" horiz-adv-x="454" d="M123 -307l94 307h-82v193h172v-205l-123 -295h-61z" />
<glyph unicode="&#x201c;" horiz-adv-x="796" d="M147 999v205l123 295h62l-94 -307h81v-193h-172zM489 999v205l123 295h62l-94 -307h82v-193h-173z" />
<glyph unicode="&#x201d;" horiz-adv-x="796" d="M123 979l94 307h-82v193h172v-205l-123 -295h-61zM465 979l94 307h-82v193h172v-205l-123 -295h-61z" />
<glyph unicode="&#x201e;" horiz-adv-x="796" d="M123 -307l94 307h-82v193h172v-205l-123 -295h-61zM465 -307l94 307h-82v193h172v-205l-123 -295h-61z" />
<glyph unicode="&#x2022;" horiz-adv-x="1024" d="M141 739.5q0 153.5 107.5 261t261.5 107.5t262.5 -107.5t108.5 -261t-108.5 -262t-262.5 -108.5t-261.5 108.5t-107.5 262z" />
<glyph unicode="&#x2026;" horiz-adv-x="2048" d="M256 0v193h172v-193h-172zM938 0v193h172v-193h-172zM1620 0v193h172v-193h-172z" />
<glyph unicode="&#x202f;" horiz-adv-x="389" />
<glyph unicode="&#x2039;" horiz-adv-x="681" d="M147 532l254 316h140l-262 -316l262 -315h-140z" />
<glyph unicode="&#x203a;" horiz-adv-x="681" d="M141 217l262 315l-262 316h140l254 -316l-254 -315h-140z" />
<glyph unicode="&#x205f;" horiz-adv-x="486" />
<glyph unicode="&#x2122;" horiz-adv-x="2027" d="M78 1368v111h684v-111h-275v-756h-135v756h-274zM901 612v867h215l258 -658l254 658h217v-867h-135v731h-4l-289 -731h-90l-285 731h-6v-731h-135z" />
<glyph unicode="&#xe000;" horiz-adv-x="1064" d="M0 0v1065h1065v-1065h-1065z" />
<glyph unicode="&#xfb01;" d="M4 942v123h164v217q0 111 50 164t167 53q45 0 115 -12v-115q-35 16 -80 17q-104 0 -105 -113v-211h172v-123h-172v-942h-147v942h-164zM629 0v1065h147v-1065h-147zM629 1307v172h147v-172h-147z" />
<glyph unicode="&#xfb02;" d="M4 942v123h164v217q0 111 50 164t167 53q45 0 115 -12v-115q-35 16 -80 17q-104 0 -105 -113v-211h172v-123h-172v-942h-147v942h-164zM629 0v1479h147v-1479h-147z" />
</font>
</defs>
</svg>
